<?xml version="1.0" encoding="UTF-8"?>
<svg class="bi bi-book" width="24" height="24" fill="currentColor" version="1.1" viewBox="0 0 24 24" xmlns="http://www.w3.org/2000/svg">
 <g transform="matrix(.00012222 0 0 .00033333 12 11.8)">
  <path d="m0-3e4h9e4v6e4h-9e4z" fill="#e30a17"/>
  <path d="m41750 0 13568-4408-8386 11541v-14266l8386 11541zm925 8021a15000 15000 0 1 1 0-16042 12000 12000 0 1 0 0 16042z" fill="#fff"/>
 </g>
 <path d="m1.5 3.5387c1.3275-0.67766 3.231-1.4084 5.082-1.6355 1.995-0.24542 3.687 0.11538 4.668 1.3773v17.85c-1.4025-0.9707-3.18-1.1044-4.8195-0.90293-1.77 0.21978-3.555 0.84432-4.9305 1.4853zm11.25-0.25824c0.981-1.2619 2.673-1.6227 4.668-1.3773 1.851 0.22711 3.7545 0.95788 5.082 1.6355v18.174c-1.377-0.64103-3.1605-1.2674-4.9305-1.4835-1.641-0.2033-3.417-0.07143-4.8195 0.9011zm-0.75-1.6557c-1.4775-1.5513-3.6195-1.7821-5.5695-1.544-2.271 0.28022-4.563 1.2308-5.991 2.0238a0.75 0.91575 0 0 0-0.4395 0.83333v20.147a0.75 0.91575 0 0 0 1.0605 0.83333c1.323-0.7326 3.4545-1.6136 5.52-1.8681 2.1135-0.26007 3.885 0.15934 4.8345 1.6062a0.75 0.91575 0 0 0 1.17 0c0.9495-1.4469 2.721-1.8663 4.833-1.6062 2.067 0.25458 4.2 1.1355 5.5215 1.8681a0.75 0.91575 0 0 0 1.0605-0.83333v-20.147a0.75 0.91575 0 0 0-0.4395-0.83333c-1.428-0.79304-3.72-1.7436-5.991-2.0238-1.95-0.23993-4.092-0.007326-5.5695 1.544z" opacity=".8" stroke-width="1.6575"/>
 <g fill="none" stroke="#000" stroke-width=".4">
  <path d="m3.0096 6.3776h6.3535"/>
  <path d="m3.135 9.1888h6.3535"/>
  <path d="m2.9678 12h6.3535"/>
  <path d="m3.0932 17.622h6.3535"/>
  <path d="m3.0514 14.811h6.3535"/>
 </g>
</svg>
